<?xml version="1.0" encoding="UTF-8"?>
<svg xmlns="http://www.w3.org/2000/svg" version="1.1" xmlns:xlink="http://www.w3.org/1999/xlink" viewBox="0 0 595.28 841.89">
  <!-- Generator: Adobe Illustrator 29.8.1, SVG Export Plug-In . SVG Version: 2.1.1 Build 2)  -->
  <defs>
    <style>
      .st0 {
        opacity: .6;
      }

      .st1, .st2 {
        opacity: .25;
      }

      .st1, .st3 {
        fill: #464646;
      }

      .st4, .st5, .st6, .st7, .st8, .st9 {
        fill: #3e3e3d;
      }

      .st10 {
        fill: #f9a04e;
        font-size: 59px;
      }

      .st10, .st5, .st11 {
        font-family: Gelica-Medium, Gelica;
        font-weight: 500;
      }

      .st5 {
        font-size: 60px;
      }

      .st12 {
        opacity: .09;
      }

      .st13 {
        fill: #c4a378;
      }

      .st14 {
        fill: #c5272a;
      }

      .st15, .st16 {
        fill: #262626;
      }

      .st17 {
        fill: #cc412d;
      }

      .st18 {
        fill: #c48b5b;
      }

      .st6 {
        font-size: 9px;
      }

      .st6, .st7, .st8, .st9 {
        font-family: GreycliffCF-Regular, 'Greycliff CF';
      }

      .st19 {
        fill: #7c9b4e;
      }

      .st20 {
        fill: #a02226;
      }

      .st21, .st22 {
        fill: #e3d7b7;
      }

      .st23 {
        opacity: .8;
      }

      .st24 {
        fill: #cee18f;
      }

      .st25, .st11 {
        fill: #ddd3c8;
      }

      .st26 {
        fill: #a8865d;
      }

      .st7 {
        font-size: 11px;
      }

      .st27 {
        fill: #ee573e;
      }

      .st28 {
        fill: #86b340;
      }

      .st29 {
        fill: #d39561;
      }

      .st8 {
        font-size: 12px;
      }

      .st30 {
        fill: #cf473d;
      }

      .st31 {
        fill: #ede3d7;
      }

      .st16 {
        font-family: GreycliffCF-Bold, 'Greycliff CF';
        font-size: 21px;
        font-weight: 700;
      }

      .st9 {
        font-size: 14px;
      }

      .st32 {
        fill: #f08967;
      }

      .st33 {
        fill: #698a3b;
      }

      .st34 {
        fill: #de9c4f;
      }

      .st35 {
        opacity: .58;
      }

      .st36 {
        fill: #f26640;
      }

      .st37 {
        fill: #4a6830;
      }

      .st22 {
        font-family: Gelica-Regular, Gelica;
        font-size: 24px;
      }

      .st11 {
        filter: url(#drop-shadow-1);
        font-size: 82px;
      }
    </style>
    <filter id="drop-shadow-1" filterUnits="userSpaceOnUse">
      <feOffset dx="2.83" dy="2.83"/>
      <feGaussianBlur result="blur" stdDeviation="0"/>
      <feFlood flood-color="#000" flood-opacity=".75"/>
      <feComposite in2="blur" operator="in"/>
      <feComposite in="SourceGraphic"/>
    </filter>
    <path id="path" d="M110.53,134.24c118.36-62.75,255.85-62.75,374.21,0"/>
  </defs>
  <g id="Background">
    <g id="Background1" data-name="Background">
      <rect class="st21" x="-8.5" y="-8.5" width="612.28" height="858.88"/>
    </g>
  </g>
  <g id="Element">
    <g id="Element1" data-name="Element">
      <polygon class="st3" points="525.91 513.32 499.4 491.4 479.6 475.03 471.36 468.21 460.74 459.43 459.75 458.61 458.64 457.69 452.46 464.76 435.26 484.42 431.18 489.09 429.97 490.47 431.03 491.45 442.68 502.22 450.53 509.47 468.82 526.38 494.08 549.72 603.78 651.12 603.78 577.72 525.91 513.32"/>
      <polygon class="st15" points="512.16 480.24 468.57 448.52 422.21 501.54 459.46 540.5 481.75 563.82 538.24 499.22 512.16 480.24"/>
      <path class="st4" d="M512.16,480.24c-10.24,8.33-19.91,17.63-28.9,27.91-8.98,10.27-16.92,21.1-23.81,32.36l22.29,23.31,56.49-64.6-26.08-18.97Z"/>
      <circle class="st3" cx="297.64" cy="350.98" r="220.2"/>
      <path class="st4" d="M506.74,336.91c-3.74-55.85-29.01-106.91-71.15-143.76-42.14-36.85-96.11-55.08-151.96-51.34-55.85,3.74-106.91,29.01-143.76,71.15-36.85,42.14-55.08,96.11-51.34,151.96,3.74,55.85,29.01,106.91,71.15,143.76,42.14,36.85,96.11,55.08,151.96,51.34,55.85-3.74,106.91-29.01,143.76-71.15,36.85-42.14,55.08-96.11,51.34-151.96Z"/>
      <path class="st3" d="M452.83,340.59c-2.78-41.45-21.53-79.35-52.81-106.69-31.28-27.35-71.33-40.88-112.78-38.11-41.45,2.78-79.35,21.53-106.69,52.81-27.35,31.28-40.88,71.33-38.11,112.78,2.78,41.45,21.53,79.34,52.8,106.69,31.28,27.35,71.33,40.88,112.78,38.11,41.45-2.78,79.34-21.53,106.69-52.81,27.35-31.28,40.88-71.33,38.11-112.78Z"/>
      <path class="st15" d="M433.34,479.14c-1.17-1.03-2.67-1.53-4.22-1.43s-2.97.81-3.99,1.98c-1.03,1.17-1.53,2.67-1.43,4.22s.81,2.97,1.98,3.99,2.67,1.53,4.22,1.43c.44-.03.87-.11,1.28-.24,1.04-.3,1.98-.9,2.71-1.74.74-.84,1.2-1.85,1.37-2.93.07-.42.09-.85.06-1.29-.11-1.55-.81-2.97-1.98-3.99ZM460.73,459.09c-.03-.45-.11-.9-.25-1.32-.3-1.03-.89-1.95-1.72-2.67-1.17-1.02-2.67-1.53-4.23-1.43-1.55.11-2.97.81-3.99,1.98s-1.53,2.67-1.43,4.22c.11,1.55.81,2.97,1.98,3.99.42.37.88.67,1.37.9.48.22.98.38,1.5.46h.01c.44.08.88.1,1.34.07,1.55-.1,2.97-.8,4-1.98.94-1.08,1.45-2.45,1.43-3.88,0-.11,0-.22-.01-.34Z"/>
    </g>
    <g id="Element2" data-name="Element">
      <path class="st33" d="M494.77,95.76c-1.4-1.71-3.38-2.88-5.57-3.19-5.68-.8-16.22,1.62-17.66,29.84,0,0,37.3-9.41,23.23-26.64Z"/>
      <path class="st19" d="M494.77,95.76c-.47-.58-1.02-1.09-1.61-1.53-2.74,6.86-18.32,24.25-21.6,27.86,0,.11-.01.21-.02.31,0,0,37.3-9.41,23.23-26.64Z"/>
      <path class="st37" d="M496.94,83.65c-.02-.52-.15-.92-.19-1.2-.06-.27-.09-.42-.09-.42,0,0,0,.15-.02.43-.02.28-.02.68-.1,1.18-.03.25-.07.53-.11.83-.06.3-.13.62-.2.96-.16.68-.37,1.44-.65,2.26-.13.41-.3.83-.47,1.25-.16.43-.35.87-.55,1.32-.39.9-.88,1.82-1.37,2.78-.25.48-.53.95-.8,1.43-.29.48-.57.96-.86,1.45-.59.97-1.21,1.95-1.86,2.9-.63.97-1.28,1.93-1.95,2.85-.67.92-1.31,1.85-1.97,2.72-.66.87-1.29,1.72-1.89,2.52-.61.8-1.19,1.55-1.72,2.25-2.16,2.79-3.6,4.65-3.6,4.65,0,0,1.93-1.39,4.46-3.88,1.27-1.23,2.7-2.74,4.14-4.43.71-.86,1.46-1.73,2.15-2.67.7-.93,1.39-1.9,2.06-2.89.65-.99,1.27-2.02,1.86-3.03.59-1.02,1.09-2.07,1.56-3.09.47-1.02.86-2.04,1.18-3.03.33-.98.58-1.93.74-2.82.19-.88.26-1.72.3-2.45,0-.37.01-.71.02-1.03-.03-.32-.05-.61-.07-.87Z"/>
    </g>
    <g id="Element3" data-name="Element">
      <path class="st33" d="M55.85,532.56c-2.19.31-4.17,1.48-5.57,3.19-14.07,17.24,23.23,26.64,23.23,26.64-1.44-28.21-11.97-30.64-17.66-29.84Z"/>
      <path class="st19" d="M73.49,562.08c-3.27-3.61-18.85-21-21.6-27.86-.59.44-1.14.95-1.61,1.53-14.07,17.24,23.23,26.64,23.23,26.64,0-.11-.01-.21-.02-.31Z"/>
      <path class="st37" d="M62.91,549.17c-.53-.7-1.11-1.45-1.72-2.25-.6-.8-1.23-1.65-1.89-2.52-.65-.87-1.3-1.8-1.97-2.72-.67-.93-1.32-1.88-1.95-2.85-.65-.96-1.27-1.93-1.86-2.9-.28-.49-.57-.97-.86-1.45-.27-.48-.55-.96-.8-1.44-.49-.96-.97-1.88-1.37-2.78-.2-.45-.39-.89-.55-1.32-.17-.43-.34-.85-.47-1.25-.28-.81-.49-1.57-.65-2.26-.07-.34-.14-.67-.2-.96-.04-.3-.08-.58-.11-.83-.08-.51-.07-.91-.1-1.18-.02-.28-.02-.43-.02-.43,0,0-.03.14-.09.42-.04.27-.18.67-.19,1.2-.02.26-.04.55-.07.87,0,.32.01.66.02,1.03.04.73.11,1.56.3,2.45.16.89.4,1.84.74,2.82.32.99.71,2,1.18,3.03.47,1.02.97,2.07,1.56,3.09.59,1.02,1.21,2.04,1.86,3.03.67.99,1.36,1.95,2.06,2.89.69.94,1.44,1.82,2.15,2.67,1.44,1.69,2.86,3.2,4.14,4.43,2.53,2.49,4.46,3.88,4.46,3.88,0,0-1.44-1.86-3.6-4.65Z"/>
    </g>
    <g id="Element4" data-name="Element">
      <path class="st14" d="M558.15,99.37c-21.81,0-39.5,17.68-39.5,39.5s17.68,39.5,39.5,39.5,39.5-17.68,39.5-39.5-17.68-39.5-39.5-39.5Z"/>
      <path class="st30" d="M558.15,100.88c-20.98,0-37.99,17.01-37.99,37.99s17.01,37.99,37.99,37.99,37.99-17.01,37.99-37.99-17.01-37.99-37.99-37.99Z"/>
      <path class="st20" d="M586.72,120.47c-3.28-5.47-10.94-12.68-18.65-13.76-7.71-1.09-8.33,17.59-9.12,26.38-.15,1.64-.08,4.77,3.47,7.33,1.67,1.21,23.36,19.85,27.7,7.45,4.34-12.4-.12-21.93-3.4-27.4Z"/>
      <path class="st20" d="M551.34,106.63c-13.07,1.33-18.96,9.99-22.39,15.36-3.43,5.38-6.46,15.44-4,22.83,2.46,7.39,20.65-1.82,28.77-5.31,2.76-1.18,3.48-3.45,3.48-6.18,0-2.06,2.82-27.58-5.85-26.7Z"/>
      <path class="st20" d="M562.13,142.35c-1.37-.91-5.56-1.88-9.56-.31-1.92.76-27.51,9.5-19.06,19.56,8.44,10.06,18.91,11.1,25.29,11.07,6.38-.03,18.1-3.78,22.97-9.85,4.87-6.07-11.75-15.2-19.64-20.47Z"/>
      <path class="st30" d="M572.31,128.89c-6.08-10.57-9.57-5.19-10.17-1.6-.6,3.59-2.96,9.27-4.87,9.57v-.4s-4.87-3.09-5.63-9.57c-.76-6.48-7.44-1.1-9.84,2.79-2.39,3.89-5.09,12.41.5,11.44,5.58-.97,12.18-2.07,12.96-1.02.78,1.05-5.48,7.93-9.57,9.92-4.09,1.99,4.09,8.28,11.27,6.88,7.18-1.4,12.56-5.25,9.77-7.31-2.79-2.06-8.58-8.24-7.68-9.49.9-1.25,8.84-4.04,12.05,0,3.21,4.04,7.29-.65,1.21-11.22Z"/>
      <path class="st34" d="M569.98,113.96c-.86.05-2.85,1.51-1.63,5.21.28.85,5.47-5.42,1.63-5.21Z"/>
      <path class="st34" d="M581.01,122.68c-.73-.46-3.19-.42-4.35,3.31-.27.86,7.6-1.26,4.35-3.31Z"/>
      <path class="st34" d="M583.72,130.53c-.36-.78-2.45-2.09-5.44.41-.69.58,7.06,3.09,5.44-.41Z"/>
      <path class="st34" d="M578.91,140.77c-.9-.02,3.3,6.96,4.38,3.27.24-.83-.48-3.19-4.38-3.27Z"/>
      <path class="st34" d="M567.05,159.15c-.9-.05,3.02,7.09,4.24,3.43.27-.81-.35-3.2-4.24-3.43Z"/>
      <path class="st34" d="M557.71,161.44c-.48-.76-4.01,6.58-.33,5.45.82-.25,2.4-2.15.33-5.45Z"/>
      <path class="st34" d="M545.83,163.26c.77.39,3.22.11,4.01-3.71.18-.88-7.45,1.98-4.01,3.71Z"/>
      <path class="st34" d="M530.05,134.63c.28.82,2.23,2.33,5.46.14.74-.5-6.72-3.77-5.46-.14Z"/>
      <path class="st34" d="M534.06,124.88c-.31.8.22,3.21,4.1,3.61.89.09-2.73-7.2-4.1-3.61Z"/>
      <path class="st34" d="M540.79,117.25c-.63.59-1.23,2.98,2.08,5.05.76.48.74-7.67-2.08-5.05Z"/>
    </g>
    <g id="Element5" data-name="Element">
      <path class="st14" d="M36.55,407.23c-17.82,0-32.26,14.44-32.26,32.26s14.44,32.26,32.26,32.26,32.26-14.44,32.26-32.26-14.44-32.26-32.26-32.26Z"/>
      <path class="st30" d="M36.55,408.46c-17.14,0-31.03,13.89-31.03,31.03s13.89,31.03,31.03,31.03,31.03-13.89,31.03-31.03-13.89-31.03-31.03-31.03Z"/>
      <path class="st20" d="M59.88,424.46c-2.68-4.46-8.93-10.35-15.23-11.24-6.3-.89-6.8,14.37-7.45,21.55-.12,1.34-.06,3.89,2.83,5.99,1.36.99,19.08,16.21,22.63,6.08,3.54-10.13-.09-17.91-2.78-22.38Z"/>
      <path class="st20" d="M30.98,413.16c-10.67,1.09-15.49,8.16-18.29,12.55-2.8,4.39-5.28,12.61-3.26,18.65,2.01,6.03,16.87-1.48,23.5-4.34,2.26-.97,2.84-2.82,2.84-5.05,0-1.68,2.31-22.53-4.78-21.81Z"/>
      <path class="st20" d="M39.8,442.33c-1.12-.75-4.54-1.54-7.81-.25-1.57.62-22.47,7.76-15.57,15.98,6.9,8.22,15.45,9.06,20.66,9.04,5.21-.02,14.78-3.09,18.76-8.05,3.98-4.96-9.6-12.42-16.04-16.72Z"/>
      <path class="st30" d="M48.12,431.33c-4.97-8.63-7.82-4.24-8.31-1.3-.49,2.93-2.42,7.58-3.98,7.82v-.33s-3.98-2.52-4.6-7.82c-.62-5.29-6.08-.9-8.04,2.28-1.96,3.18-4.15,10.13.41,9.34,4.56-.79,9.95-1.69,10.59-.83.64.86-4.48,6.47-7.82,8.1-3.34,1.63,3.34,6.76,9.2,5.62,5.86-1.14,10.26-4.29,7.98-5.97-2.28-1.68-7-6.73-6.27-7.75.73-1.02,7.22-3.3,9.84,0,2.62,3.3,5.96-.53.99-9.16Z"/>
      <path class="st34" d="M46.21,419.14c-.7.04-2.33,1.23-1.33,4.26.23.7,4.47-4.43,1.33-4.26Z"/>
      <path class="st34" d="M55.22,426.26c-.6-.37-2.61-.34-3.55,2.7-.22.7,6.21-1.03,3.55-2.7Z"/>
      <path class="st34" d="M57.43,432.67c-.29-.64-2-1.71-4.45.33-.56.47,5.77,2.52,4.45-.33Z"/>
      <path class="st34" d="M53.5,441.04c-.73-.02,2.7,5.69,3.57,2.67.2-.67-.39-2.6-3.57-2.67Z"/>
      <path class="st34" d="M43.81,456.05c-.73-.04,2.47,5.79,3.46,2.8.22-.66-.29-2.61-3.46-2.8Z"/>
      <path class="st34" d="M36.19,457.93c-.39-.62-3.28,5.37-.27,4.45.67-.21,1.96-1.75.27-4.45Z"/>
      <path class="st34" d="M26.48,459.41c.63.31,2.63.09,3.27-3.03.15-.72-6.08,1.61-3.27,3.03Z"/>
      <path class="st34" d="M13.59,436.03c.23.67,1.82,1.9,4.46.11.61-.41-5.48-3.08-4.46-.11Z"/>
      <path class="st34" d="M16.87,428.06c-.25.66.18,2.62,3.35,2.94.73.08-2.23-5.88-3.35-2.94Z"/>
      <path class="st34" d="M22.36,421.83c-.52.48-1,2.43,1.7,4.13.62.39.61-6.26-1.7-4.13Z"/>
    </g>
    <g id="Element6" data-name="Element">
      <g class="st2">
        <path class="st3" d="M220.61,479l-49.25-37.11-9.48-7.14c-2.86-2.16-6.61-2.23-9.48-.53-1.14.67-2.14,1.63-2.89,2.84l-22.27,35.99-6.04,9.76-9.92,16.02c-2.32,3.74-1.4,8.63,2.12,11.28l13.19,9.95,5.77,4.35-3.16,4.19-68.56,90.99c-1.73-.12-3.46.15-5.07.78-1.95.75-3.72,2.05-5.08,3.84l-27.81,36.91-11.34,15.05-1.78,2.37-13.7,18.18c-3.89,5.16-2.86,12.49,2.3,16.38.75.57,1.56,1.03,2.39,1.4,3.52,1.53,7.57,1.21,10.79-.79,1.21-.73,2.3-1.71,3.21-2.91l8.13-10.79,46.51-61.71c2.47-3.28,2.95-7.44,1.65-11.03l68.56-90.98,3.16-4.2,18.97,14.29c.18.13.35.26.54.37,3.46,2.23,8.08,1.66,10.89-1.44l7.26-8,7.29-8.03,34.28-37.75c.98-1.07,1.62-2.32,1.94-3.63.82-3.2-.28-6.75-3.12-8.9ZM168.36,530.81l-5.52-4.16-2.27-1.71.79-.97,6.76-8.29,23.97-29.4,3.33-4.08,8.78,6.63-28.06,32.87-6.96,8.15-.82.96ZM125.09,498.2l3.77-5.74,6.12-9.32,17.52-26.69,2.89-4.41,8.78,6.62-22.35,32.44-6.22,9.02-2.72,3.95-5.95-4.49-1.84-1.38ZM4.58,697.52c1.42-1.88,4.08-2.26,5.96-.84.31.23.58.5.8.79,1.15,1.48,1.22,3.6.04,5.17-.01.02-.03.04-.04.05-1.43,1.83-4.06,2.19-5.92.78-1.88-1.41-2.25-4.08-.84-5.95ZM144.88,513.12l-2.05-1.55,1.7-2.32,6.37-8.69,21.39-29.2,3.11-4.24,8.79,6.62-25.9,33.71-6.52,8.49-1.15,1.5-5.74-4.32Z"/>
        <path class="st1" d="M220.61,479l-49.25-37.11-9.48-7.14c-2.86-2.16-6.61-2.23-9.48-.53-1.14.67-2.14,1.63-2.89,2.84l-22.27,35.99-6.04,9.76-9.92,16.02c-2.32,3.74-1.4,8.63,2.12,11.28l13.19,9.95,5.77,4.35-3.16,4.19-68.56,90.99c-1.73-.12-3.46.15-5.07.78-1.95.75-3.72,2.05-5.08,3.84l-27.81,36.91-11.34,15.05-1.78,2.37-13.7,18.18c-3.89,5.16-2.86,12.49,2.3,16.38.75.57,1.56,1.03,2.39,1.4,3.52,1.53,7.57,1.21,10.79-.79,1.21-.73,2.3-1.71,3.21-2.91l8.13-10.79,46.51-61.71c2.47-3.28,2.95-7.44,1.65-11.03l68.56-90.98,3.16-4.2,18.97,14.29c.18.13.35.26.54.37,3.46,2.23,8.08,1.66,10.89-1.44l7.26-8,7.29-8.03,34.28-37.75c.98-1.07,1.62-2.32,1.94-3.63.82-3.2-.28-6.75-3.12-8.9ZM168.36,530.81l-5.52-4.16-2.27-1.71.79-.97,6.76-8.29,23.97-29.4,3.33-4.08,8.78,6.63-28.06,32.87-6.96,8.15-.82.96ZM125.09,498.2l3.77-5.74,6.12-9.32,17.52-26.69,2.89-4.41,8.78,6.62-22.35,32.44-6.22,9.02-2.72,3.95-5.95-4.49-1.84-1.38ZM4.58,697.52c1.42-1.88,4.08-2.26,5.96-.84.31.23.58.5.8.79,1.15,1.48,1.22,3.6.04,5.17-.01.02-.03.04-.04.05-1.43,1.83-4.06,2.19-5.92.78-1.88-1.41-2.25-4.08-.84-5.95ZM144.88,513.12l-2.05-1.55,1.7-2.32,6.37-8.69,21.39-29.2,3.11-4.24,8.79,6.62-25.9,33.71-6.52,8.49-1.15,1.5-5.74-4.32Z"/>
      </g>
      <g>
        <rect class="st31" x="-27.54" y="593.28" width="204.26" height="12.77" transform="translate(-449.21 298.35) rotate(-53)"/>
        <g>
          <path class="st3" d="M61.91,627.11c-.75-2.06-2.08-3.93-3.96-5.35-.75-.57-1.55-1.03-2.38-1.39-1.24-.54-2.55-.85-3.87-.94-3.81-.26-7.67,1.35-10.14,4.63l-18.88,25.05-11.34,15.05-19.84,26.32v23.81c1.52.69,3.15,1.02,4.77,1.02,1.46,0,2.91-.27,4.28-.81,1.95-.76,3.72-2.06,5.07-3.85l5.72-7.59,11.34-15.05,37.57-49.86c2.47-3.29,2.96-7.45,1.66-11.04ZM2.44,702.49c-1.41,1.87-4.08,2.25-5.96.83-1.87-1.41-2.25-4.08-.84-5.96,1.42-1.87,4.09-2.25,5.96-.83,1.88,1.41,2.26,4.08.84,5.96Z"/>
          <path class="st3" d="M61.91,627.11c-.75-2.06-2.08-3.93-3.96-5.35-.75-.57-1.55-1.03-2.38-1.39-1.24-.54-2.55-.85-3.87-.94-3.81-.26-7.67,1.35-10.14,4.63l-18.88,25.05-11.34,15.05-19.84,26.32v23.81c1.52.69,3.15,1.02,4.77,1.02,1.46,0,2.91-.27,4.28-.81,1.95-.76,3.72-2.06,5.07-3.85l5.72-7.59,11.34-15.05,37.57-49.86c2.47-3.29,2.96-7.45,1.66-11.04ZM2.44,702.49c-1.41,1.87-4.08,2.25-5.96.83-1.87-1.41-2.25-4.08-.84-5.96,1.42-1.87,4.09-2.25,5.96-.83,1.88,1.41,2.26,4.08.84,5.96Z"/>
        </g>
        <g>
          <path class="st25" d="M214.44,482.43c-.56-1.37-1.48-2.62-2.76-3.58l-24.94-18.79-33.8-25.47c-.18-.13-.36-.26-.54-.37-3.96-2.54-9.31-1.38-11.82,2.69l-18.11,29.25-6.13,9.9-14,22.62c-2.31,3.74-1.4,8.63,2.12,11.28l18.97,14.29,5.77,4.35,4.43,3.34,5.77,4.35,13.19,9.94c2.83,2.13,6.58,2.25,9.48.52.71-.42,1.37-.95,1.95-1.59l10.51-11.57,7.25-8,31.07-34.21c2.29-2.53,2.78-6.02,1.59-8.95ZM172.29,471.36l2.96,2.23-22.26,28.98-6.54,8.51-1.57,2.04-3.2,4.17-7.79-5.87,5.41-7.38,6.41-8.74,20.76-28.33,5.82,4.39ZM152.5,456.45l2.74,2.06-18.47,26.8-6.27,9.09-3.57,5.18-2.99,4.34-7.79-5.87,7.71-11.75,6.19-9.43,16.4-24.98,6.05,4.56ZM159.42,530.66l-7.79-5.87,4.29-5.26,6.75-8.28,23.81-29.2,5.61,4.23,3.18,2.4-24.69,28.91-6.95,8.14-.79.92-3.42,4.01Z"/>
          <path class="st25" d="M214.44,482.43c-.56-1.37-1.48-2.62-2.76-3.58l-24.94-18.79-33.8-25.47c-.18-.13-.36-.26-.54-.37-3.96-2.54-9.31-1.38-11.82,2.69l-18.11,29.25-6.13,9.9-14,22.62c-2.31,3.74-1.4,8.63,2.12,11.28l18.97,14.29,5.77,4.35,4.43,3.34,5.77,4.35,13.19,9.94c2.83,2.13,6.58,2.25,9.48.52.71-.42,1.37-.95,1.95-1.59l10.51-11.57,7.25-8,31.07-34.21c2.29-2.53,2.78-6.02,1.59-8.95ZM172.29,471.36l2.96,2.23-22.26,28.98-6.54,8.51-1.57,2.04-3.2,4.17-7.79-5.87,5.41-7.38,6.41-8.74,20.76-28.33,5.82,4.39ZM152.5,456.45l2.74,2.06-18.47,26.8-6.27,9.09-3.57,5.18-2.99,4.34-7.79-5.87,7.71-11.75,6.19-9.43,16.4-24.98,6.05,4.56ZM159.42,530.66l-7.79-5.87,4.29-5.26,6.75-8.28,23.81-29.2,5.61,4.23,3.18,2.4-24.69,28.91-6.95,8.14-.79.92-3.42,4.01Z"/>
        </g>
      </g>
    </g>
    <path class="st29" d="M129.01,177.27c-1.69-9.66-6-19.59-12.55-29.74-.14-.34-.41-.6-.74-.74l-42.25-17.7c-.21-.09-.4-.23-.55-.41l-2.3-2.9,33.95,14.01c1.14.47,2.28-.67,1.81-1.81.72-3.81-.87-7.59-4.71-11.33-.14-.33-.4-.6-.73-.74l-40.28-17.08c-.3-.13-.54-.35-.69-.63-.11-.22-.16-.43-.16-.64,0-.93.96-1.69,1.94-1.27l31.14,13.47c1.17.5,2.35-.71,1.8-1.86.34-2.57-3.68-8.62-4.41-8.61-9.08-9.78-22.93-14.42-38.29-17.43-.18-.08-.38-.12-.58-.12l-33.03.04c-.28,0-.55-.09-.78-.24l-26.1-17.81v56.75l6.76,3.71c.13.08.26.17.36.29l48.71,53.96c.18.19.41.34.67.41l34.38,9.2c.11.03.23.05.34.05l22.28.27c.77.01,1.39-.59,1.4-1.35.01-.71,0-1.64-.11-2.71-.37-4-1.94-9.84-7.62-12.23-7.03-2.96-11.68-1.87-13.39-1.24-.47.17-.98.08-1.36-.26-2.32-2.03-10.63-8.86-20.04-11-1.06-.24-1.47-1.51-.73-2.3l13.18-13.94c.33-.35.82-.5,1.29-.4l27.56,5.86c.46.1.84.42,1,.86,1.17,3.16,6.26,15.97,13.08,18.8,5.19,2.15,7.96,1.3,9.23.5.57-.35.78-1.08.52-1.69Z"/>
    <path class="st18" d="M106.29,194.31c-4.93-1.15-9.65-2.1-13.4-2.52-14.14-1.61-43.07-11.58-60.1-32.47-10.74-13.17-29.16-25.58-41.29-32.95v4.11l6.76,3.71c.13.08.26.17.36.29l48.71,53.96c.18.19.41.34.67.41l34.38,9.2c.11.03.23.05.34.05l22.28.27c.77.01,1.39-.59,1.4-1.35.01-.71,0-1.64-.11-2.71Z"/>
    <g id="Element7" data-name="Element">
      <path class="st28" d="M165.17,217.89c1.93-2.54,6.22-9.73,2.19-14.02-4.03-4.29-12.79-1.93-12.79-1.93,0,0-1.22,1.14-1.23-.96,0-2.1,0-9.9-3.85-14.45-3.85-4.56-9.11-7.19-18.84-6.84-9.72.35-21,2.43-25.08-6.34-4.09-8.76-4.26-12.15-4.26-12.15,0,0-2.1,0-1.05,3.33,1.05,3.33,4.38,18.92,1.05,31.36-3.33,12.44-5,15.85,1.44,21.29,6.44,5.43,9.59-.17,13.89,12.79,4.3,12.97,13.93,11.3,16.38,10.16,2.45-1.14,5.08-4.12,8.76.35,3.68,4.47,14.81,8.15,20.5,1.05,5.7-7.1,5.17-12.88,3.16-15.77-2.02-2.89-2.19-5.35-.26-7.89Z"/>
      <path class="st24" d="M141.89,219.84c-1.17-1.4,5.26-1.52,8.88-2.43,3.62-.91,4.32-2.24,4.32-2.24,0,0-6.89,1.75-11.8,2.22-4.9.46-10.63-7.48-13.2-10.87-2.57-3.39-3.15-3.73,2.69-3.85,5.84-.12,13.2-5.37,13.2-5.37,0,0-3.85,1.75-9.69,3.62-5.84,1.87-10.51-.35-20.32-11.56-9.81-11.22-15.07-26.4-15.07-26.4.12,7.13,12.38,26.52,13.67,28.15,1.29,1.64,1.28,6.54,1.28,8.76,0,2.22-.23,9.93-.23,9.93,3.62-3.15,2.1-14.01,2.1-14.01,0,0,6.31,6.54,8.65,8.88,2.33,2.33,3.5,6.66,4.79,12.73,1.28,6.08-1.4,12.73-1.4,12.73,3.15-2.46,2.92-10.05,2.8-14.25-.11-4.21.93-2.34,3.15.23,2.22,2.57,11.22,10.75,11.22,10.75v5.26s1.4-4.09,1.4-4.09l6.77,4.09c-1.17-2.22-12.03-10.87-13.2-12.27Z"/>
    </g>
    <g class="st12">
      <path class="st3" d="M541.38,793.84c1.53-.42,3-1.07,4.5-1.59,1.62-.57,2.98-1.53,4.18-2.73,1.9-1.9,3.71-3.88,5.16-6.15,1-1.55,2.04-3.08,3.05-4.62.17-.27.39-.57.06-.88-.31-.28-.64-.1-.93.03-.61.29-1.2.61-1.8.92-4.79,2.49-9.18,5.53-12.91,9.47-.26.28-.64.43-.98.64-.05-.23-.17-.46-.11-.66.42-1.54.89-3.07,1.33-4.6.21-.75.64-1.36,1.08-1.98,1.01-1.45,2.04-2.88,2.96-4.39,2.46-4.07,3.5-8.51,3.3-13.26-.12-2.69-.37-5.37-.7-8.04-.28-2.32-.98-4.61-.69-7,.02-.19-.16-.49-.34-.61-.37-.25-.64.05-.8.34-1.25,2.18-2.49,4.38-3.72,6.58-.41.73-.79,1.49-1.21,2.21-3.12,5.34-3.93,11.02-2.59,17.03.48,2.13.99,4.26,1.61,6.35.27.94.29,1.8.02,2.71-.45,1.45-.86,2.9-1.31,4.35-.07.22-.27.4-.41.6-.61-.32-.45-.9-.5-1.36-.27-2.37-.93-4.6-2.13-6.68-.96-1.67-1.89-3.37-2.86-5.04-.72-1.24-1.4-2.49-1.76-3.89-.05-.19-.3-.4-.5-.47-.3-.11-.48.17-.52.41-.93,5.01-.51,9.87,1.6,14.54,1.01,2.25,2.31,4.3,4.12,5.99.99.92,1.23,1.93.74,3.17-.37.94-.66,1.91-1.02,2.85-.08.21-.29.5-.47.52-.44.05-.43-.37-.49-.68-.67-3.55-2.2-6.69-4.44-9.49-1.49-1.86-2.72-3.84-3.57-6.06-.09-.23-.34-.39-.61-.26-.12.07-.26.25-.26.38-.12,4.48-.04,8.92,2.34,12.96.9,1.54,2.01,2.89,3.27,4.13,3.17,3.11,2.5,2.78,1.36,6.35-.29.92-.5,1.96-1.33,2.62-.54-.24-.53-.68-.63-1.07-.71-2.79-1.69-5.44-3.52-7.74-1.52-1.92-2.52-4.16-3.6-6.35-.18-.37-.38-.75-.64-1.05-.17-.19-.51-.17-.63.09-.13.29-.2.64-.19.96.07,2.6.16,5.21.65,7.78.5,2.62,1.88,4.84,3.28,7.04.73,1.13,1.52,2.22,2.32,3.3.63.84.75,1.69.11,2.55-1.15,1.54-2.16,3.19-3.56,4.46-.52-.15-.56-.48-.56-.82-.03-1.98-.69-3.79-1.56-5.53-.14-.31-.31-.6-.46-.9-1.27-2.46-2.8-4.81-3.16-7.65-.04-.3-.33-.36-.59-.28-.14.04-.26.19-.37.3-.05.06-.09.16-.08.23.01,2.52.02,5.04.07,7.56.06,3.22,1.3,6.05,2.97,8.72.22.36.48.69.71,1.04.31.46.37.95.02,1.4-1.39,1.8-2.78,3.59-4.19,5.36-.08.1-.3.08-.46.11-.31-1.72.27-3.48-.26-5.18-.52-1.69-.97-3.4-1.53-5.07-.56-1.68-.98-3.38-1.16-5.14-.02-.12-.22-.28-.35-.3s-.31.08-.43.18c-.11.11-.22.27-.26.42-.78,3.1-1.6,6.17-1.51,9.42.08,2.66.63,5.16,1.64,7.59.16.39.32.78.48,1.16.22.52.16,1.03-.22,1.41-1.49,1.47-2.81,3.13-4.51,4.39-.11.08-.31.04-.52.06-.04-.23-.14-.47-.12-.7.3-4.06-.02-8.06-1.28-11.95-.06-.16-.07-.33-.13-.49-.31-.75.11-1.71-.66-2.33-1.14.37-.86,1.48-1.11,2.27-.63,2-1.17,4.03-1.67,6.07-.54,2.21-.84,4.45-.88,6.74-.02,1.38.32,2.66.6,3.98.01.04.02.09.02.13.13.75-.05,1.37-.72,1.85-1.07.77-2.13,1.56-3.19,2.34.56.01,1.15.03,1.76.04.49-.35.97-.69,1.46-1.04.59-.43,1.16-.52,1.85-.12.75.42,1.51.85,2.3,1.2.02,0,.04.01.07.02.14.06.29.12.43.18,4.68,0,10.26-.04,11.41.01h0c.42-.15.83-.34,1.24-.54,2.03-1.01,4.05-2.01,6.08-3.02.24-.12.38-.32.32-.6-.06-.29-.3-.44-.55-.43-1.27.06-2.55.05-3.82-.03h-.01c-.74-.04-1.47-.11-2.2-.2-3.69-.46-7.36-.45-11,.34-.17.04-.35.08-.52.12-.24.06-.5.02-.75.01-.07-.01-.17-.06-.19-.11t-.02-.02c-.02-.14-.06-.35.02-.43.47-.47.98-.91,1.45-1.39,1.56-1.53,3.13-3.04,4.64-4.62.75-.8,1.53-.93,2.49-.53.39.16.79.28,1.16.48,3.72,1.95,7.49,1.53,11.24.17,2.54-.93,4.81-2.38,7.03-3.91.21-.14.34-.38.19-.63-.08-.13-.24-.27-.38-.28-.42-.03-.84,0-1.26-.02-1.09-.05-2.19-.01-3.26-.18-3.87-.62-7.7-.57-11.52.32-.24.06-.5.05-.75.06-.07,0-.14-.06-.21-.09.01-.16-.04-.37.04-.48,1.26-1.68,2.53-3.35,3.8-5.02.47-.62,1.01-.73,1.77-.5,2.62.8,5.27.93,7.97.36,2.09-.45,3.98-1.35,5.79-2.41,1.44-.84,2.76-1.91,4.12-2.91.24-.18.54-.47.26-.82-.14-.16-.44-.28-.65-.26-1.26.1-2.51.28-3.76.37-1.09.07-2.19.02-3.28.08-2.52.15-5.02.45-7.38,1.45-.23.09-.48.14-.72.19-.05.01-.12-.07-.18-.11-.01-.08-.06-.19-.03-.23,1.29-1.76,2.58-3.52,3.87-5.27.56-.76,1.27-1.02,2.2-.79,5.27,1.27,9.57-.84,13.49-4,1.69-1.36,3.12-3.05,4.93-4.3.21-.14.3-.46.12-.66-.14-.16-.45-.33-.65-.29-5.24,1.13-10.63,1.76-15.29,4.77-.56.36-1.2.6-1.77.88-.4-.27-.32-.59-.2-.91.48-1.26.98-2.51,1.43-3.78.45-1.25,1.25-1.89,2.64-1.85,2.05.04,4.01-.46,5.91-1.17,2.73-1.01,4.93-2.83,6.95-4.88.41-.41.77-.88,1.15-1.33,1.12-1.36,2.03-2.89,3.43-4.02.12-.1.15-.53.05-.66-.12-.15-.48-.27-.67-.2-2.29.83-4.53,1.79-6.85,2.54-2.92.96-5.51,2.46-7.92,4.32-.73.56-1.47,1.12-2.44,1.2.33-.93.73-1.84.97-2.79.33-1.26,1.02-1.99,2.31-2.35ZM541.68,789.01c.04.14.01.16-.09.07.03-.02.06-.05.09-.07ZM538.15,799.12l-.07-.08s.01-.02.01-.03l.06.11ZM99.89,840.13c-.94-2.52-1.98-4.99-3.01-7.48-.07-.19-.37-.41-.55-.4-.17.01-.44.29-.47.47-.21,1.5-.43,3-.54,4.5-.08,1.01-.12,2.01-.07,3,0,.06.01.11.01.17.01.08.01.17.02.25.1,1.36.38,2.71.97,4.01.03.06.05.11.08.17,1.68-.07,3.15-.16,4.56-.26-.09-1.33-.38-2.64-.82-3.92l-.18-.51ZM499.42,832.72c-.03-.18-.3-.46-.47-.47-.18-.01-.48.21-.55.4-1.03,2.49-2.07,4.96-3.01,7.48l-.18.51c-.44,1.28-.73,2.59-.82,3.92,1.41.1,2.88.19,4.56.26.03-.06.05-.11.08-.17.59-1.3.87-2.65.97-4.01.01-.08.01-.17.02-.25,0-.06.01-.11.01-.17.05-.99.01-1.99-.07-3-.11-1.5-.33-3-.54-4.5ZM90.11,840.72s.01-.09.02-.13c.28-1.32.62-2.6.6-3.98-.04-2.29-.34-4.53-.88-6.74-.5-2.04-1.04-4.07-1.67-6.07-.25-.79.03-1.9-1.11-2.27-.77.62-.35,1.58-.66,2.33-.06.16-.07.33-.13.49-1.26,3.89-1.58,7.89-1.28,11.95.02.23-.08.47-.12.7-.21-.02-.41.02-.52-.06-1.7-1.26-3.02-2.92-4.51-4.39-.38-.38-.44-.89-.22-1.41.16-.38.32-.77.48-1.16,1.01-2.43,1.56-4.93,1.64-7.59.09-3.25-.73-6.32-1.51-9.42-.04-.15-.15-.31-.26-.42-.12-.1-.3-.2-.43-.18s-.33.18-.35.3c-.18,1.76-.6,3.46-1.16,5.14-.56,1.67-1.01,3.38-1.53,5.07-.53,1.7.05,3.46-.26,5.18-.16-.03-.38-.01-.46-.11-1.41-1.77-2.8-3.56-4.19-5.36-.35-.45-.29-.94.02-1.4.23-.35.49-.68.71-1.04,1.67-2.67,2.91-5.5,2.97-8.72.05-2.52.06-5.04.07-7.56.01-.07-.03-.17-.08-.23-.11-.11-.23-.26-.37-.3-.26-.08-.55-.02-.59.28-.36,2.84-1.89,5.19-3.16,7.65-.15.3-.32.59-.46.9-.87,1.74-1.53,3.55-1.56,5.53,0,.34-.04.67-.56.82-1.4-1.27-2.41-2.92-3.56-4.46-.64-.86-.52-1.71.11-2.55.8-1.08,1.59-2.17,2.32-3.3,1.4-2.2,2.78-4.42,3.28-7.04.49-2.57.58-5.18.65-7.78,0-.32-.06-.67-.19-.96-.12-.26-.46-.28-.63-.09-.26.3-.46.68-.64,1.05-1.08,2.19-2.08,4.43-3.6,6.35-1.83,2.3-2.81,4.95-3.52,7.74-.1.39-.09.83-.63,1.07-.83-.66-1.04-1.7-1.33-2.62-1.14-3.57-1.81-3.24,1.36-6.35,1.26-1.24,2.37-2.59,3.27-4.13,2.38-4.04,2.46-8.48,2.34-12.96,0-.13-.14-.31-.26-.38-.27-.13-.52.03-.61.26-.85,2.22-2.08,4.2-3.57,6.06-2.24,2.8-3.77,5.94-4.44,9.49-.06.31-.05.73-.49.68-.18-.02-.39-.31-.47-.52-.36-.94-.65-1.91-1.02-2.85-.49-1.24-.25-2.25.74-3.17,1.81-1.69,3.11-3.74,4.12-5.99,2.11-4.67,2.53-9.53,1.6-14.54-.04-.24-.22-.52-.52-.41-.2.07-.45.28-.5.47-.36,1.4-1.04,2.65-1.76,3.89-.97,1.67-1.9,3.37-2.86,5.04-1.2,2.08-1.86,4.31-2.13,6.68-.05.46.11,1.04-.5,1.36-.14-.2-.34-.38-.41-.6-.45-1.45-.86-2.9-1.31-4.35-.27-.91-.25-1.77.02-2.71.62-2.09,1.13-4.22,1.61-6.35,1.34-6.01.53-11.69-2.59-17.03-.42-.72-.8-1.48-1.21-2.21-1.23-2.2-2.47-4.4-3.72-6.58-.16-.29-.43-.59-.8-.34-.18.12-.36.42-.34.61.29,2.39-.41,4.68-.69,7-.33,2.67-.58,5.35-.7,8.04-.2,4.75.84,9.19,3.3,13.26.92,1.51,1.95,2.94,2.96,4.39.44.62.87,1.23,1.08,1.98.44,1.53.91,3.06,1.33,4.6.06.2-.06.43-.11.66-.34-.21-.72-.36-.98-.64-3.73-3.94-8.12-6.98-12.91-9.47-.6-.31-1.19-.63-1.8-.92-.29-.13-.62-.31-.93-.03-.33.31-.11.61.06.88,1.01,1.54,2.05,3.07,3.05,4.62,1.45,2.27,3.26,4.25,5.16,6.15,1.2,1.2,2.56,2.16,4.18,2.73,1.5.52,2.97,1.17,4.5,1.59,1.29.36,1.98,1.09,2.31,2.35.24.95.64,1.86.97,2.79-.97-.08-1.71-.64-2.44-1.2-2.41-1.86-5-3.36-7.92-4.32-2.32-.75-4.56-1.71-6.85-2.54-.19-.07-.55.05-.67.2-.1.13-.07.56.05.66,1.4,1.13,2.31,2.66,3.43,4.02.38.45.74.92,1.15,1.33,2.02,2.05,4.22,3.87,6.95,4.88,1.9.71,3.86,1.21,5.91,1.17,1.39-.04,2.19.6,2.64,1.85.45,1.27.95,2.52,1.43,3.78.12.32.2.64-.2.91-.57-.28-1.21-.52-1.77-.88-4.66-3.01-10.05-3.64-15.29-4.77-.2-.04-.51.13-.65.29-.18.2-.09.52.12.66,1.81,1.25,3.24,2.94,4.93,4.3,3.92,3.16,8.22,5.27,13.49,4,.93-.23,1.64.03,2.2.79,1.29,1.75,2.58,3.51,3.87,5.27.03.04-.02.15-.03.23-.06.04-.13.12-.18.11-.24-.05-.49-.1-.72-.19-2.36-1-4.86-1.3-7.38-1.45-1.09-.06-2.19-.01-3.28-.08-1.25-.09-2.5-.27-3.76-.37-.21-.02-.51.1-.65.26-.28.35.02.64.26.82,1.36,1,2.68,2.07,4.12,2.91,1.81,1.06,3.7,1.96,5.79,2.41,2.7.57,5.35.44,7.97-.36.76-.23,1.3-.12,1.77.5,1.27,1.67,2.54,3.34,3.8,5.02.08.11.03.32.04.48-.07.03-.14.09-.21.09-.25-.01-.51,0-.75-.06-3.82-.89-7.65-.94-11.52-.32-1.07.17-2.17.13-3.26.18-.42.02-.84-.01-1.26.02-.14.01-.3.15-.38.28-.15.25-.02.49.19.63,2.22,1.53,4.49,2.98,7.03,3.91,3.75,1.36,7.52,1.78,11.24-.17.37-.2.77-.32,1.16-.48.96-.4,1.74-.27,2.49.53,1.51,1.58,3.08,3.09,4.64,4.62.47.48.98.92,1.45,1.39.08.08.04.29.02.43t-.02.02s-.12.1-.19.11c-.25.01-.51.05-.75-.01-.17-.04-.35-.08-.52-.12-3.64-.79-7.31-.8-11-.34-.73.09-1.46.16-2.2.2h-.01c-1.27.08-2.55.09-3.82.03-.25-.01-.49.14-.55.43-.06.28.08.48.32.6,2.03,1.01,4.05,2.01,6.08,3.02.41.2.82.39,1.24.54h.01c1.15-.05,6.73-.01,11.41-.01.14-.06.29-.12.43-.18.03-.01.05-.02.07-.02.79-.35,1.55-.78,2.3-1.2.69-.4,1.26-.31,1.85.12.49.35.97.69,1.46,1.04.61-.01,1.2-.03,1.76-.04-1.06-.78-2.12-1.57-3.19-2.34-.67-.48-.85-1.1-.72-1.85ZM53.6,789.01s.06.05.09.07c-.1.09-.13.07-.09-.07ZM57.13,799.12l.06-.11s.01.02.01.03l-.07.08Z"/>
    </g>
    <g id="Element8" data-name="Element">
      <path class="st17" d="M418.81,430.77c-8.78,36.26-45.47,58.99-81.84,50.69-.26-.06-.52-.1-.77-.14-.08-.01-.16-.01-.24-.02-.17-.02-.34-.03-.5-.04-.09,0-.18,0-.27,0-.15,0-.3,0-.44.01-.09,0-.18.02-.27.03-.14.02-.28.04-.42.06-.09.02-.17.03-.25.05-.14.03-.28.07-.41.11-.07.02-.15.04-.22.06-.16.05-.31.11-.46.17-.05.02-.1.04-.14.06-.19.09-.38.18-.56.29-.04.02-.08.05-.12.08-.14.08-.27.17-.4.26-.06.05-.12.09-.18.14-.1.08-.21.16-.3.25-.06.06-.13.11-.19.17-.09.08-.17.17-.26.26-.06.07-.12.13-.18.2-.08.09-.15.18-.22.27-.06.07-.12.14-.17.22-.07.09-.13.19-.19.28-.05.08-.11.16-.16.24-.06.1-.11.2-.17.3-.1.18-.19.36-.28.55-.03.07-.07.15-.1.22-.05.12-.09.24-.14.36-.03.07-.06.14-.08.22-.04.12-.08.25-.11.37-.02.07-.04.14-.06.21-.03.13-.06.26-.09.4-.01.06-.02.13-.04.19-.03.14-.05.28-.07.43,0,.05-.01.1-.02.15-.02.16-.03.31-.04.47,0,.01,0,.02,0,.04-.03.75.04,1.5.22,2.22,0,0,0,.02,0,.03.04.17.1.33.15.5,0,.02.02.05.02.07.06.16.12.32.19.47,0,.02.02.04.03.07.07.16.15.31.24.47,0,0,0,.01.01.02.37.65.86,1.25,1.48,1.75,0,0,.01,0,.02.01,0,0,0,0,0,0,.77.62,1.74,1.1,2.92,1.37,21.09,4.81,43.78,1.4,62.18-10.15,18.25-11.46,31.29-29.45,36.57-50.31,0,0,0,0,0,0,.07-.28.15-.56.22-.85,2.16-8.93-11.71-12.19-13.87-3.26Z"/>
      <g>
        <path class="st36" d="M419.84,432.79c-8.78,36.27-45.47,58.99-81.84,50.69-8.96-2.04-12.22,11.83-3.26,13.87,21.09,4.81,43.78,1.4,62.18-10.15,18.49-11.61,31.66-29.93,36.79-51.15,2.16-8.93-11.71-12.19-13.87-3.26Z"/>
        <path class="st27" d="M419.84,432.79c-8.78,36.27-45.47,58.99-81.84,50.69-7.77-1.77-11.25,8.44-6.18,12.5.8-3.54,3.92-6.57,8.46-5.46,36.25,8.83,73.27-13.35,82.58-49.49,1.38-5.35,6.93-6.23,10.64-4.14.07-.28.15-.56.22-.85,2.16-8.93-11.71-12.19-13.87-3.26Z"/>
        <g>
          <g class="st23">
            <path class="st32" d="M413.27,458.71c-3.39,2.68-4.49,8.37-2.08,8.84,2.41.47,5.98-4.45,5.98-4.45,3.96-5.75-.52-7.07-3.9-4.39Z"/>
          </g>
          <g class="st0">
            <path class="st32" d="M422.33,441.81c-1.34.83-2.14,5.03-.81,5.99,1.34.96,3.03-2.72,3.1-2.89.85-1.97-.95-3.93-2.29-3.1Z"/>
          </g>
          <g class="st0">
            <path class="st32" d="M350.7,488.32c-5.8,1.32-9.8,3.8-1.3,5.55,0,0,8.4,1.61,11.69-.42,3.29-2.04-4.58-6.44-10.38-5.12Z"/>
          </g>
        </g>
      </g>
    </g>
    <g id="Element9" data-name="Element">
      <g class="st2">
        <path class="st3" d="M590.85,320.5c-4.28-5.64-5.66-12.81-3.47-18.06.04-.09.08-.18.11-.28.57-1.45.94-3.03,1.08-4.77.48-6.02-1.85-13.81-8.37-23.85-.88-1.35-21.36-32.89-27.92-42.98-.91-1.4-2.39-2.13-3.59-1.85-.24.04-.47.13-.68.27-1.31.86-1.46,3-.29,4.8l25.88,39.83c.06.08.11.17.16.26.98,1.73.8,3.73-.47,4.56-1.33.87-3.36.11-4.53-1.68l-25.87-39.84c-1-1.53-2.6-2.29-3.87-1.95-.22.06-.43.15-.63.28l-.03.02c-1.33.86-1.46,3-.3,4.79l25.88,39.83c.06.09.11.17.16.26.98,1.74.8,3.74-.47,4.56-1.34.87-3.36.12-4.53-1.67l-25.87-39.84c-1-1.53-2.6-2.29-3.88-1.95-.22.06-.43.15-.63.28l-.02.02c-1.33.86-1.47,3-.3,4.79l25.87,39.83c.06.09.11.17.16.26.99,1.73.81,3.73-.46,4.56-1.34.87-3.37.11-4.53-1.68l-25.87-39.83c-.95-1.46-2.46-2.23-3.7-2-.29.05-.56.16-.81.32-1.25.82-1.38,2.86-.29,4.54,6.55,10.09,27.05,41.63,27.92,42.98,8.52,13.12,16.43,18.14,23.48,18.31,5.69.14,11.68,4.3,15.1,10.51l18.51,33.6v-20.18l-12.93-17.05Z"/>
      </g>
      <path class="st31" d="M591.95,315.66c-3.13-4.13-4.7-9.08-4.46-13.5.08-1.62.42-3.16,1-4.57.03-.07.05-.13.08-.2,2.6-6.49,1.17-15.7-7.27-28.69-.87-1.35-21.36-32.89-27.91-42.98-1.1-1.68-3.01-2.39-4.27-1.58-1.26.82-1.45,2.82-.43,4.57.04.08.09.15.14.23l25.87,39.83c1.17,1.79,1.03,3.95-.31,4.82-.2.13-.41.22-.63.28-1.28.34-2.9-.44-3.89-1.96l-25.88-39.84c-1.16-1.79-3.16-2.53-4.5-1.67l-.03.02c-1.26.82-1.44,2.81-.44,4.54.05.08.1.17.15.25l25.87,39.83c1.17,1.79,1.02,3.96-.3,4.82-.2.13-.42.23-.64.28-1.29.34-2.9-.43-3.89-1.95l-25.88-39.84c-1.16-1.79-3.17-2.53-4.5-1.67l-.03.02c-1.26.82-1.44,2.81-.45,4.54.05.08.1.17.15.25l25.88,39.83c1.16,1.79,1.03,3.95-.31,4.82-.2.13-.42.22-.64.28-1.28.34-2.9-.44-3.88-1.96l-25.88-39.83c-1.16-1.8-3.18-2.54-4.5-1.68-1.26.82-1.39,2.84-.3,4.52,0,0,0,0,0,.02,6.55,10.09,27.04,41.63,27.91,42.98,8.53,13.12,16.44,18.14,23.49,18.31,5.69.13,11.68,4.3,15.09,10.51l17.41,31.6v-19.63l-11.83-15.6Z"/>
    </g>
    <rect class="st4" x="244.48" y="666.86" width="256.41" height="1"/>
    <g id="Particel">
      <circle class="st31" cx="537.05" cy="423.39" r="7.89" transform="translate(-122.51 242.66) rotate(-22.93)"/>
      <circle class="st26" cx="471.54" cy="60.86" r="7.89" transform="translate(-3.65 76.51) rotate(-9.24)"/>
      <path class="st13" d="M70.5,681.25c-1.95,0-3.52,1.58-3.52,3.52s1.58,3.52,3.52,3.52,3.52-1.58,3.52-3.52-1.58-3.52-3.52-3.52Z"/>
      <g class="st35">
        <circle class="st31" cx="525.05" cy="693.5" r="7.68"/>
      </g>
      <circle class="st31" cx="52.95" cy="268.77" r="7.89"/>
      <circle class="st31" cx="478.55" cy="152.1" r="7.89" transform="translate(-18.21 78.82) rotate(-9.24)"/>
      <path class="st31" d="M437.86,571.94c-1.27,0-2.3,1.03-2.3,2.3s1.03,2.3,2.3,2.3,2.3-1.03,2.3-2.3-1.03-2.3-2.3-2.3Z"/>
      <path class="st31" d="M48.95,352.35c-1.27,0-2.3,1.03-2.3,2.3s1.03,2.3,2.3,2.3,2.3-1.03,2.3-2.3-1.03-2.3-2.3-2.3Z"/>
      <path class="st31" d="M116.15,66.45c-1.27,0-2.3,1.03-2.3,2.3s1.03,2.3,2.3,2.3,2.3-1.03,2.3-2.3-1.03-2.3-2.3-2.3Z"/>
    </g>
    <path class="st30" d="M493.17,718.29v-6.91H102.1v6.91c6.71,0,12.14,5.44,12.14,12.14s-5.44,12.14-12.14,12.14v6.91h391.07v-6.91c-6.71,0-12.14-5.44-12.14-12.14s5.44-12.14,12.14-12.14Z"/>
    <path class="st30" d="M247.9,630.43c-1.89,0-3.42,1.53-3.42,3.42s1.53,3.42,3.42,3.42,3.42-1.53,3.42-3.42-1.53-3.42-3.42-3.42Z"/>
    <path class="st30" d="M247.9,649.61c-1.89,0-3.42,1.53-3.42,3.42s1.53,3.42,3.42,3.42,3.42-1.53,3.42-3.42-1.53-3.42-3.42-3.42Z"/>
    <path class="st30" d="M385.93,630.43c-1.89,0-3.42,1.53-3.42,3.42s1.53,3.42,3.42,3.42,3.42-1.53,3.42-3.42-1.53-3.42-3.42-3.42Z"/>
    <path class="st30" d="M385.93,649.61c-1.89,0-3.42,1.53-3.42,3.42s1.53,3.42,3.42,3.42,3.42-1.53,3.42-3.42-1.53-3.42-3.42-3.42Z"/>
  </g>
  <g id="Text">
    <text class="st8" transform="translate(186.18 770.07)"><tspan x="0" y="0">For More information : (000) - 000 - 0000</tspan><tspan x="39.22" y="14.4">or visit www.example.com</tspan></text>
    <text class="st22" transform="translate(134.09 738.35)"><tspan x="0" y="0">AT YOUR PLACE NAME HERE</tspan></text>
    <text class="st6" transform="translate(243.45 684.1)"><tspan x="0" y="0">123 Street Name, City Name, State, Country 12345</tspan></text>
    <text class="st9" transform="translate(244.08 613.21)"><tspan x="0" y="0">WHAT YOU’LL LEARN </tspan></text>
    <text class="st7" transform="translate(263.21 637.27)"><tspan x="0" y="0">Philadelphia </tspan></text>
    <text class="st7" transform="translate(263.21 656.17)"><tspan x="0" y="0">Grilled Vegetari</tspan><tspan x="79.5" y="0">-</tspan></text>
    <text class="st7" transform="translate(401.24 637.27)"><tspan x="0" y="0">Strawberry </tspan></text>
    <text class="st7" transform="translate(401.24 656.17)"><tspan x="0" y="0">Grilled Salmon </tspan></text>
    <text class="st5" transform="translate(122.19 659.41)"><tspan x="0" y="0">$13</tspan></text>
    <text class="st9" transform="translate(148.22 684.1)"><tspan x="0" y="0">ENTRY </tspan></text>
    <text class="st11" transform="translate(109.18 333.24)"><tspan x="0" y="0">COOKING</tspan><tspan x="59.86" y="76">CLASS</tspan></text>
    <text class="st10" transform="translate(208.33 262.79)"><tspan x="0" y="0">Online</tspan></text>
    <g>
      <path class="st21" d="M174.84,432.73v.41c-.99.01-1.32,1.26-.85,1.25.5-.02.84.31.84.76,0,.48-.39.81-.84.81-.55,0-1-.5-1-1.28,0-1,.75-1.96,1.86-1.95ZM176.25,434.38c.5-.02.84.31.84.76,0,.48-.39.81-.84.81-.56,0-1-.5-1-1.28,0-1,.75-1.96,1.86-1.95v.41c-.99.01-1.32,1.26-.85,1.25Z"/>
      <path class="st21" d="M178.92,443.24v-10.08c0-.14.07-.21.21-.21h.71c.13,0,.21.07.21.21v9.28h3.81c.14,0,.23.09.23.23v.55c0,.13-.09.22-.23.22h-4.72c-.14,0-.21-.08-.21-.21Z"/>
      <path class="st21" d="M185.3,439.78c0-2.19,1.62-3.85,3.76-3.85s3.75,1.67,3.75,3.85-1.62,3.86-3.75,3.86-3.76-1.67-3.76-3.86ZM189.06,442.63c1.54,0,2.7-1.18,2.7-2.85s-1.15-2.85-2.7-2.85-2.71,1.18-2.71,2.85,1.15,2.85,2.71,2.85Z"/>
      <path class="st21" d="M194.72,443.24v-6.93c0-.13.06-.21.19-.21h.63c.15,0,.21.06.21.23l.03.84c.28-.69.78-1.25,1.69-1.25.3,0,.54.06.67.15.09.06.12.12.12.26v.52c0,.17-.1.2-.27.15-.19-.06-.38-.08-.52-.08-1.32,0-1.68,1.17-1.68,2v4.32c0,.13-.06.21-.19.21h-.69c-.14,0-.19-.08-.19-.21Z"/>
      <path class="st21" d="M199.28,439.75c0-2.16,1.5-3.82,3.69-3.82s3.44,1.68,3.44,3.48c0,.54-.1.77-.54.77h-5.53c.15,1.45,1.14,2.55,2.92,2.55.9,0,1.54-.27,2.11-.71.08-.06.17-.06.23.01l.25.34c.1.14.05.21-.06.32-.66.63-1.6.95-2.62.95-2.4,0-3.88-1.74-3.88-3.89ZM205.44,439.33c-.06-1.45-1-2.44-2.49-2.44s-2.48.94-2.62,2.44h5.11Z"/>
      <path class="st21" d="M208.31,443.24v-6.93c0-.13.06-.21.19-.21h.63c.15,0,.21.06.21.23l.03.84c.36-.69,1-1.25,2.08-1.25,1.02,0,1.78.48,2.16,1.44.38-.79,1.06-1.44,2.31-1.44,1.51,0,2.43.99,2.43,2.92v4.39c0,.13-.06.21-.19.21h-.69c-.14,0-.2-.08-.2-.21v-4.27c0-1.29-.52-2.04-1.59-2.04s-1.81.76-1.81,2.04v4.27c0,.13-.06.21-.19.21h-.69c-.14,0-.19-.08-.19-.21v-4.27c0-1.29-.6-2.04-1.67-2.04s-1.74.76-1.74,2.04v4.27c0,.13-.06.21-.19.21h-.69c-.14,0-.19-.08-.19-.21Z"/>
      <path class="st21" d="M223.5,433.52c0-.39.3-.69.68-.69s.67.3.67.69-.3.68-.67.68-.68-.3-.68-.68ZM223.64,436.31c0-.13.06-.21.19-.21h.69c.13,0,.19.08.19.21v6.93c0,.13-.06.21-.19.21h-.69c-.14,0-.19-.08-.19-.21v-6.93Z"/>
      <path class="st21" d="M226.98,446.09v-9.78c0-.13.06-.21.19-.21h.63c.14,0,.19.08.19.21l.03,1.23c.54-.98,1.52-1.62,2.82-1.62,2.16,0,3.63,1.67,3.63,3.85s-1.47,3.86-3.63,3.86c-1.29,0-2.25-.6-2.79-1.54v4c0,.13-.06.21-.19.21h-.69c-.14,0-.19-.08-.19-.21ZM230.7,442.63c1.59,0,2.73-1.14,2.73-2.85s-1.14-2.85-2.73-2.85-2.65,1.17-2.65,2.88,1.09,2.82,2.65,2.82Z"/>
      <path class="st21" d="M236,442.52c-.1-.12-.1-.24-.02-.38l.23-.3c.09-.12.23-.12.34,0,.45.48.99.83,1.8.83.85,0,1.47-.38,1.47-1.14,0-.69-.46-1.02-1.15-1.3l-.87-.36c-.9-.38-1.65-.93-1.65-1.98,0-1.21,1.02-1.96,2.25-1.96.84,0,1.62.36,2.15,1.02.09.11.07.23-.02.33l-.24.27c-.13.15-.22.13-.36,0-.46-.48-.94-.71-1.48-.71-.67,0-1.26.33-1.26,1.02s.51.96,1.26,1.28l.72.3c.96.39,1.72.95,1.72,2.08,0,1.38-1.19,2.12-2.5,2.12-1.19,0-1.98-.58-2.38-1.11Z"/>
      <path class="st21" d="M242.87,440.63v-4.32c0-.13.06-.21.19-.21h.69c.13,0,.19.08.19.21v4.21c0,1.3.68,2.1,1.89,2.1s2.15-.79,2.15-2.1v-4.21c0-.13.04-.21.18-.21h.71c.14,0,.19.08.19.21v6.93c0,.13-.06.21-.19.21h-.65c-.15,0-.19-.06-.21-.22l-.03-.95c-.42.75-1.23,1.35-2.44,1.35-1.59,0-2.67-1.05-2.67-3Z"/>
      <path class="st21" d="M251.33,443.24v-6.93c0-.13.06-.21.19-.21h.63c.15,0,.21.06.21.23l.03.84c.36-.69,1-1.25,2.08-1.25,1.02,0,1.78.48,2.16,1.44.38-.79,1.06-1.44,2.31-1.44,1.51,0,2.43.99,2.43,2.92v4.39c0,.13-.06.21-.19.21h-.69c-.14,0-.2-.08-.2-.21v-4.27c0-1.29-.52-2.04-1.59-2.04s-1.81.76-1.81,2.04v4.27c0,.13-.06.21-.19.21h-.69c-.14,0-.19-.08-.19-.21v-4.27c0-1.29-.6-2.04-1.67-2.04s-1.74.76-1.74,2.04v4.27c0,.13-.06.21-.19.21h-.69c-.14,0-.19-.08-.19-.21Z"/>
      <path class="st21" d="M266.28,439.78c0-2.19,1.47-3.85,3.61-3.85,1.29,0,2.26.62,2.8,1.58v-4.56c0-.13.06-.21.2-.21h.69c.13,0,.19.08.19.21v10.3c0,.13-.06.21-.19.21h-.65c-.14,0-.2-.08-.2-.21l-.03-1.2c-.54.99-1.5,1.59-2.82,1.59-2.15,0-3.61-1.65-3.61-3.86ZM270.05,442.63c1.58,0,2.67-1.12,2.67-2.82s-1.09-2.88-2.67-2.88-2.71,1.16-2.71,2.85,1.14,2.85,2.71,2.85Z"/>
      <path class="st21" d="M275.67,439.78c0-2.19,1.62-3.85,3.76-3.85s3.75,1.67,3.75,3.85-1.62,3.86-3.75,3.86-3.76-1.67-3.76-3.86ZM279.44,442.63c1.54,0,2.7-1.18,2.7-2.85s-1.15-2.85-2.7-2.85-2.71,1.18-2.71,2.85,1.15,2.85,2.71,2.85Z"/>
      <path class="st21" d="M285.09,443.24v-10.3c0-.13.06-.21.19-.21h.69c.13,0,.19.08.19.21v10.3c0,.13-.06.21-.19.21h-.69c-.14,0-.19-.08-.19-.21Z"/>
      <path class="st21" d="M288.06,439.78c0-2.19,1.62-3.85,3.76-3.85s3.75,1.67,3.75,3.85-1.62,3.86-3.75,3.86-3.76-1.67-3.76-3.86ZM291.83,442.63c1.54,0,2.7-1.18,2.7-2.85s-1.15-2.85-2.7-2.85-2.71,1.18-2.71,2.85,1.15,2.85,2.71,2.85Z"/>
      <path class="st21" d="M297.48,443.24v-6.93c0-.13.06-.21.19-.21h.63c.15,0,.21.06.21.23l.03.84c.28-.69.78-1.25,1.7-1.25.3,0,.54.06.67.15.09.06.12.12.12.26v.52c0,.17-.11.2-.27.15-.19-.06-.38-.08-.52-.08-1.32,0-1.68,1.17-1.68,2v4.32c0,.13-.06.21-.19.21h-.69c-.14,0-.19-.08-.19-.21Z"/>
      <path class="st21" d="M305.42,442.52c-.1-.12-.1-.24-.01-.38l.22-.3c.09-.12.23-.12.34,0,.45.48.99.83,1.8.83.85,0,1.47-.38,1.47-1.14,0-.69-.46-1.02-1.16-1.3l-.87-.36c-.9-.38-1.65-.93-1.65-1.98,0-1.21,1.02-1.96,2.25-1.96.84,0,1.62.36,2.14,1.02.09.11.08.23-.01.33l-.24.27c-.13.15-.22.13-.36,0-.46-.48-.94-.71-1.48-.71-.67,0-1.26.33-1.26,1.02s.51.96,1.26,1.28l.72.3c.96.39,1.72.95,1.72,2.08,0,1.38-1.18,2.12-2.5,2.12-1.18,0-1.98-.58-2.38-1.11Z"/>
      <path class="st21" d="M312.15,433.52c0-.39.3-.69.67-.69s.67.3.67.69-.3.68-.67.68-.67-.3-.67-.68ZM312.29,436.31c0-.13.06-.21.2-.21h.69c.14,0,.2.08.2.21v6.93c0,.13-.06.21-.2.21h-.69c-.13,0-.2-.08-.2-.21v-6.93Z"/>
      <path class="st21" d="M316.2,441.95v-4.95h-.96c-.13,0-.21-.08-.21-.21v-.48c0-.13.08-.21.21-.21h.96v-1.74c0-.13.06-.21.19-.21h.69c.13,0,.2.08.2.21v1.74h1.25c.13,0,.21.08.21.21v.48c0,.13-.08.21-.21.21h-1.25v4.8c0,.57.22.78.67.78.12,0,.33-.01.46-.03.22-.03.29.04.29.19v.47c0,.25-.55.33-.95.33-1.02,0-1.56-.51-1.56-1.59Z"/>
      <path class="st21" d="M323.19,439.78c0-2.19,1.47-3.85,3.61-3.85,1.32,0,2.28.64,2.82,1.62l.03-1.23c0-.13.06-.21.2-.21h.65c.13,0,.19.08.19.21v6.93c0,.13-.06.21-.19.21h-.65c-.13,0-.2-.08-.2-.21l-.03-1.2c-.54.99-1.5,1.59-2.82,1.59-2.14,0-3.61-1.65-3.61-3.86ZM326.96,442.63c1.58,0,2.67-1.12,2.67-2.82s-1.09-2.88-2.67-2.88-2.71,1.16-2.71,2.85,1.14,2.85,2.71,2.85Z"/>
      <path class="st21" d="M332.96,443.24v-6.93c0-.13.06-.21.19-.21h.63c.15,0,.21.06.21.23l.03.84c.36-.69,1-1.25,2.08-1.25,1.02,0,1.79.48,2.16,1.44.38-.79,1.07-1.44,2.31-1.44,1.52,0,2.43.99,2.43,2.92v4.39c0,.13-.06.21-.2.21h-.69c-.13,0-.19-.08-.19-.21v-4.27c0-1.29-.53-2.04-1.59-2.04s-1.82.76-1.82,2.04v4.27c0,.13-.06.21-.2.21h-.69c-.13,0-.2-.08-.2-.21v-4.27c0-1.29-.6-2.04-1.67-2.04s-1.74.76-1.74,2.04v4.27c0,.13-.06.21-.19.21h-.69c-.13,0-.19-.08-.19-.21Z"/>
      <path class="st21" d="M344.91,439.75c0-2.16,1.5-3.82,3.69-3.82s3.43,1.68,3.43,3.48c0,.54-.1.77-.54.77h-5.54c.15,1.45,1.14,2.55,2.93,2.55.9,0,1.54-.27,2.11-.71.08-.06.17-.06.23.01l.25.34c.1.14.04.21-.06.32-.66.63-1.6.95-2.62.95-2.4,0-3.88-1.74-3.88-3.89ZM351.08,439.33c-.06-1.45-1-2.44-2.49-2.44s-2.47.94-2.62,2.44h5.12Z"/>
      <path class="st21" d="M354.51,441.95v-4.95h-.96c-.14,0-.21-.08-.21-.21v-.48c0-.13.07-.21.21-.21h.96v-1.74c0-.13.06-.21.19-.21h.69c.13,0,.19.08.19.21v1.74h1.25c.13,0,.21.08.21.21v.48c0,.13-.08.21-.21.21h-1.25v4.8c0,.57.23.78.68.78.12,0,.33-.01.46-.03.22-.03.29.04.29.19v.47c0,.25-.56.33-.95.33-1.02,0-1.56-.51-1.56-1.59Z"/>
      <path class="st21" d="M359.27,443.68c-.5.01-.84-.32-.84-.77,0-.48.39-.81.84-.81.55,0,1,.5,1,1.27,0,1.01-.75,1.97-1.86,1.95v-.41c.99-.01,1.32-1.26.86-1.24Z"/>
      <path class="st21" d="M364.56,439.78c0-2.21,1.65-3.85,3.83-3.85,1.17,0,2.12.46,2.75,1.23.09.12.12.21.03.3l-.39.36c-.13.13-.25.08-.34-.01-.46-.5-1.04-.87-2-.87-1.62,0-2.82,1.17-2.82,2.85s1.2,2.85,2.83,2.85c.96,0,1.53-.37,1.98-.85.1-.11.22-.17.36-.03l.39.36c.09.09.06.18-.03.3-.63.76-1.58,1.23-2.76,1.23-2.17,0-3.83-1.65-3.83-3.86Z"/>
      <path class="st21" d="M372.45,439.78c0-2.19,1.62-3.85,3.77-3.85s3.75,1.67,3.75,3.85-1.62,3.86-3.75,3.86-3.77-1.67-3.77-3.86ZM376.22,442.63c1.54,0,2.7-1.18,2.7-2.85s-1.15-2.85-2.7-2.85-2.72,1.18-2.72,2.85,1.16,2.85,2.72,2.85Z"/>
      <path class="st21" d="M381.87,443.24v-6.93c0-.13.06-.21.2-.21h.63c.15,0,.21.06.21.23l.04.94c.42-.75,1.21-1.35,2.43-1.35,1.61,0,2.69,1.05,2.69,3v4.32c0,.13-.06.21-.2.21h-.71c-.13,0-.18-.08-.18-.21v-4.21c0-1.3-.69-2.1-1.91-2.1s-2.13.79-2.13,2.1v4.21c0,.13-.06.21-.19.21h-.69c-.13,0-.2-.08-.2-.21Z"/>
      <path class="st21" d="M390.11,442.52c-.11-.12-.11-.24-.01-.38l.22-.3c.09-.12.22-.12.34,0,.45.48.99.83,1.8.83.86,0,1.47-.38,1.47-1.14,0-.69-.47-1.02-1.16-1.3l-.87-.36c-.9-.38-1.65-.93-1.65-1.98,0-1.21,1.02-1.96,2.25-1.96.84,0,1.62.36,2.15,1.02.09.11.08.23-.02.33l-.24.27c-.14.15-.23.13-.36,0-.46-.48-.95-.71-1.49-.71-.67,0-1.26.33-1.26,1.02s.51.96,1.26,1.28l.72.3c.96.39,1.72.95,1.72,2.08,0,1.38-1.18,2.12-2.5,2.12-1.18,0-1.98-.58-2.38-1.11Z"/>
      <path class="st21" d="M396.53,439.75c0-2.16,1.5-3.82,3.69-3.82s3.43,1.68,3.43,3.48c0,.54-.1.77-.54.77h-5.54c.15,1.45,1.14,2.55,2.93,2.55.9,0,1.54-.27,2.11-.71.08-.06.17-.06.23.01l.25.34c.1.14.04.21-.06.32-.66.63-1.6.95-2.62.95-2.4,0-3.88-1.74-3.88-3.89ZM402.69,439.33c-.06-1.45-1-2.44-2.49-2.44s-2.47.94-2.62,2.44h5.12Z"/>
      <path class="st21" d="M405.18,439.78c0-2.21,1.65-3.85,3.83-3.85,1.17,0,2.12.46,2.75,1.23.09.12.12.21.03.3l-.39.36c-.13.13-.25.08-.34-.01-.46-.5-1.04-.87-2-.87-1.62,0-2.82,1.17-2.82,2.85s1.2,2.85,2.83,2.85c.96,0,1.53-.37,1.98-.85.1-.11.22-.17.36-.03l.39.36c.09.09.06.18-.03.3-.63.76-1.58,1.23-2.76,1.23-2.17,0-3.83-1.65-3.83-3.86Z"/>
      <path class="st21" d="M413.4,443.2l3.63-10.06c.04-.12.15-.18.27-.18h.83c.12,0,.23.06.27.18l3.64,10.06c.06.15,0,.25-.17.25h-.75c-.12,0-.2-.04-.24-.18l-.76-2.17h-4.8l-.76,2.17c-.04.13-.12.18-.25.18h-.74c-.17,0-.22-.1-.17-.25ZM419.76,440.09l-2.04-5.79-2.04,5.79h4.08ZM417.11,429.92c.08-.09.13-.12.24-.12h.75c.1,0,.16.03.24.12l1.29,1.56c.08.09.02.21-.1.21h-.6c-.1,0-.17-.03-.24-.12l-.96-1.2-.98,1.2c-.08.09-.13.12-.24.12h-.58c-.13,0-.18-.12-.1-.21l1.29-1.56ZM418.41,428.3h.53c.13,0,.19.06.28.18l1.26,1.68c.09.12.03.24-.14.24h-.51c-.13,0-.19-.06-.29-.18l-1.27-1.68c-.09-.12-.03-.24.13-.24Z"/>
      <path class="st21" d="M257.54,459.95v-4.95h-.96c-.13,0-.21-.08-.21-.21v-.48c0-.13.08-.21.21-.21h.96v-1.74c0-.13.06-.21.19-.21h.69c.13,0,.19.08.19.21v1.74h1.25c.13,0,.21.08.21.21v.48c0,.13-.08.21-.21.21h-1.25v4.8c0,.57.23.78.67.78.12,0,.33-.01.47-.03.22-.03.28.04.28.19v.47c0,.25-.55.33-.94.33-1.02,0-1.56-.51-1.56-1.59Z"/>
      <path class="st21" d="M261.46,457.75c0-2.16,1.5-3.82,3.69-3.82s3.44,1.68,3.44,3.48c0,.54-.1.77-.54.77h-5.53c.15,1.45,1.14,2.55,2.92,2.55.9,0,1.54-.27,2.11-.71.08-.06.17-.06.23.01l.25.34c.11.14.05.21-.06.32-.66.63-1.6.95-2.62.95-2.4,0-3.88-1.74-3.88-3.89ZM267.62,457.33c-.06-1.45-1-2.44-2.49-2.44s-2.48.94-2.62,2.44h5.11Z"/>
      <path class="st21" d="M271.06,459.95v-4.95h-.96c-.13,0-.21-.08-.21-.21v-.48c0-.13.08-.21.21-.21h.96v-1.74c0-.13.06-.21.19-.21h.69c.13,0,.19.08.19.21v1.74h1.25c.13,0,.21.08.21.21v.48c0,.13-.08.21-.21.21h-1.25v4.8c0,.57.23.78.67.78.12,0,.33-.01.46-.03.23-.03.29.04.29.19v.47c0,.25-.55.33-.94.33-1.02,0-1.56-.51-1.56-1.59Z"/>
      <path class="st21" d="M275.43,458.63v-4.32c0-.13.06-.21.19-.21h.69c.13,0,.19.08.19.21v4.21c0,1.3.68,2.1,1.89,2.1s2.15-.79,2.15-2.1v-4.21c0-.13.04-.21.18-.21h.71c.14,0,.19.08.19.21v6.93c0,.13-.06.21-.19.21h-.65c-.15,0-.19-.06-.21-.22l-.03-.95c-.42.75-1.23,1.35-2.44,1.35-1.59,0-2.67-1.05-2.67-3Z"/>
      <path class="st21" d="M283.51,457.75c0-2.16,1.5-3.82,3.69-3.82s3.44,1.68,3.44,3.48c0,.54-.1.77-.54.77h-5.53c.15,1.45,1.14,2.55,2.92,2.55.9,0,1.54-.27,2.11-.71.08-.06.17-.06.23.01l.25.34c.11.14.05.21-.06.32-.66.63-1.6.95-2.62.95-2.4,0-3.88-1.74-3.88-3.89ZM289.67,457.33c-.06-1.45-1-2.44-2.49-2.44s-2.48.94-2.62,2.44h5.11Z"/>
      <path class="st21" d="M292.54,461.24v-6.93c0-.13.06-.21.19-.21h.63c.15,0,.21.06.21.23l.03.84c.28-.69.78-1.25,1.69-1.25.3,0,.54.06.67.15.09.06.12.12.12.26v.52c0,.17-.1.2-.27.15-.19-.06-.38-.08-.52-.08-1.32,0-1.68,1.17-1.68,2v4.32c0,.13-.06.21-.19.21h-.69c-.13,0-.19-.08-.19-.21Z"/>
      <path class="st21" d="M300.33,457.78c0-2.19,1.47-3.85,3.62-3.85,1.32,0,2.28.64,2.82,1.62l.03-1.23c0-.13.06-.21.2-.21h.64c.13,0,.2.08.2.21v6.93c0,.13-.06.21-.2.21h-.64c-.14,0-.2-.08-.2-.21l-.03-1.2c-.54.99-1.5,1.59-2.82,1.59-2.15,0-3.62-1.65-3.62-3.86ZM304.09,460.63c1.58,0,2.67-1.12,2.67-2.82s-1.09-2.88-2.67-2.88-2.71,1.16-2.71,2.85,1.14,2.85,2.71,2.85Z"/>
      <path class="st21" d="M309.71,457.78c0-2.19,1.47-3.85,3.62-3.85,1.29,0,2.26.62,2.8,1.58v-4.56c0-.13.06-.21.2-.21h.69c.13,0,.2.08.2.21v10.3c0,.13-.06.21-.2.21h-.64c-.14,0-.2-.08-.2-.21l-.03-1.2c-.54.99-1.5,1.59-2.82,1.59-2.15,0-3.62-1.65-3.62-3.86ZM313.48,460.63c1.58,0,2.67-1.12,2.67-2.82s-1.09-2.88-2.67-2.88-2.71,1.16-2.71,2.85,1.14,2.85,2.71,2.85Z"/>
      <path class="st21" d="M319.34,451.52c0-.39.3-.69.67-.69s.67.3.67.69-.3.68-.67.68-.67-.3-.67-.68ZM319.48,454.31c0-.13.06-.21.2-.21h.69c.14,0,.2.08.2.21v6.93c0,.13-.06.21-.2.21h-.69c-.13,0-.2-.08-.2-.21v-6.93Z"/>
      <path class="st21" d="M322.82,464.09v-9.78c0-.13.06-.21.2-.21h.63c.13,0,.2.08.2.21l.03,1.23c.54-.98,1.52-1.62,2.82-1.62,2.16,0,3.63,1.67,3.63,3.85s-1.47,3.86-3.63,3.86c-1.29,0-2.25-.6-2.79-1.54v4c0,.13-.06.21-.2.21h-.69c-.13,0-.2-.08-.2-.21ZM326.54,460.63c1.59,0,2.73-1.14,2.73-2.85s-1.14-2.85-2.73-2.85-2.65,1.17-2.65,2.88,1.09,2.82,2.65,2.82Z"/>
      <path class="st21" d="M332.08,451.52c0-.39.3-.69.67-.69s.67.3.67.69-.3.68-.67.68-.67-.3-.67-.68ZM332.21,454.31c0-.13.06-.21.2-.21h.69c.14,0,.2.08.2.21v6.93c0,.13-.06.21-.2.21h-.69c-.13,0-.2-.08-.2-.21v-6.93Z"/>
      <path class="st21" d="M335.8,452.26c-.5.01-.84-.32-.84-.76,0-.48.39-.81.84-.81.55,0,1,.5,1,1.28,0,1-.75,1.96-1.86,1.95v-.4c.99-.02,1.32-1.26.86-1.25ZM337.21,453.5c.99-.02,1.32-1.26.85-1.25-.5.01-.84-.32-.84-.76,0-.48.39-.81.84-.81.56,0,1,.5,1,1.28,0,1-.75,1.96-1.86,1.95v-.4Z"/>
    </g>
    <text>
      <textPath startOffset=".51%" xlink:href="#path"><tspan class="st16"><tspan x="0" y="0">YOUR GREAT PRESENT</tspan></tspan>
      </textPath></text>
  </g>
</svg>